<?xml version="1.0" standalone="no"?>
<!DOCTYPE svg PUBLIC "-//W3C//DTD SVG 20010904//EN"
 "http://www.w3.org/TR/2001/REC-SVG-20010904/DTD/svg10.dtd">
<svg version="1.0" xmlns="http://www.w3.org/2000/svg"
 width="512.000000pt" height="512.000000pt" viewBox="0 0 512.000000 512.000000"
 preserveAspectRatio="xMidYMid meet">
<metadata>
Created by potrace 1.14, written by Peter Selinger 2001-2017
</metadata>
<g transform="translate(0.000000,512.000000) scale(0.100000,-0.100000)"
fill="#000000" stroke="none">
<path d="M2656 4372 c-3 -5 -6 -25 -8 -45 -2 -40 -9 -45 -28 -22 -7 8 -18 15
-24 15 -6 0 -33 12 -61 25 -44 22 -51 23 -61 10 -9 -11 -25 -15 -62 -12 l-50
4 -21 -71 c-21 -74 -30 -117 -36 -176 -2 -19 -4 -38 -4 -42 -1 -4 -9 -5 -19
-3 -33 6 -81 -25 -90 -58 -7 -29 -10 -26 -42 58 -29 74 -35 85 -41 64 -5 -19
-12 -5 -35 68 -16 51 -32 93 -37 93 -4 0 -6 -3 -5 -7 2 -7 -7 -69 -17 -121 -1
-10 -10 -66 -20 -127 -9 -60 -19 -117 -20 -125 -22 -115 -16 -173 40 -405 13
-55 24 -130 24 -167 0 -38 2 -72 5 -77 3 -5 9 -33 12 -62 3 -29 10 -63 15 -76
10 -26 9 -26 -25 -13 -14 5 -26 15 -26 23 0 19 -75 171 -112 225 -17 26 -76
92 -132 147 -88 88 -106 113 -153 205 -29 58 -65 119 -81 136 -57 66 -70 82
-96 120 l-26 39 41 38 41 38 -66 -2 -67 -2 -43 64 c-51 76 -71 95 -109 104
-25 7 -29 4 -40 -24 -6 -17 -15 -31 -18 -31 -12 0 -66 70 -91 117 -13 23 -26
43 -29 43 -4 0 -7 -19 -7 -42 1 -83 0 -85 -31 -90 -23 -3 -27 -1 -23 14 4 17
2 17 -43 -2 -25 -11 -49 -20 -51 -20 -2 0 -10 15 -18 33 -11 25 -15 28 -15 11
-1 -30 -27 -49 -101 -77 -54 -20 -65 -28 -64 -47 1 -17 -9 -27 -42 -42 -24
-10 -49 -28 -55 -40 -21 -39 10 -164 37 -154 16 6 22 -27 13 -77 -5 -28 -3
-40 7 -44 19 -7 18 -23 -1 -23 -8 0 -24 20 -36 45 -12 25 -22 45 -24 45 -1 0
-2 -32 -1 -71 1 -75 -5 -89 -30 -68 -14 12 -15 -1 -12 -116 3 -122 2 -130 -19
-151 -29 -29 -24 -58 71 -370 9 -29 17 -83 19 -120 1 -38 6 -74 9 -80 4 -6 8
-28 9 -50 1 -53 37 -168 58 -191 21 -22 36 -99 21 -108 -6 -4 9 -31 35 -64 53
-67 72 -120 55 -152 -12 -22 -14 -85 -5 -239 8 -151 14 -200 36 -285 12 -45
20 -106 19 -140 -6 -190 -5 -237 7 -304 12 -73 17 -116 28 -276 10 -137 13
-154 32 -185 9 -17 30 -36 45 -43 16 -6 28 -15 28 -19 0 -4 26 -5 57 -3 69 5
83 -5 83 -56 0 -28 4 -39 15 -39 19 0 19 -14 0 -30 -23 -19 -8 -29 28 -20 17
5 48 11 67 15 19 3 53 9 75 13 27 5 56 3 87 -7 44 -13 49 -13 67 3 14 13 30
16 56 13 52 -7 72 1 89 36 19 42 27 115 14 136 -8 13 -4 28 20 66 22 35 28 53
21 62 -8 9 -5 11 14 8 14 -3 30 1 37 10 21 25 24 175 6 278 -9 51 -18 110 -21
132 -7 68 -16 167 -19 221 -2 28 -6 56 -10 62 -4 7 -5 12 -1 12 3 0 0 10 -7
23 -8 15 -13 79 -14 202 -1 159 -11 361 -19 375 -1 3 0 12 4 22 5 13 18 7 78
-35 43 -31 75 -62 79 -76 8 -28 85 -125 128 -161 17 -14 82 -75 146 -137 106
-102 118 -117 137 -175 37 -111 37 -106 8 -110 -24 -3 -22 -7 55 -103 44 -55
87 -115 96 -133 8 -18 19 -30 24 -27 5 3 11 1 15 -5 8 -13 72 -13 81 1 4 7 21
-4 45 -27 41 -40 50 -33 29 21 -9 23 -8 26 7 23 30 -6 24 -58 -11 -96 -36 -39
-33 -39 100 -11 54 11 109 23 122 25 12 3 45 -2 73 -10 47 -14 79 -13 79 3 0
4 22 7 49 7 58 -1 75 15 122 109 l29 60 -25 3 c-30 4 -31 12 -5 42 20 23 24
34 21 56 -1 7 9 9 22 7 40 -8 51 19 53 135 2 84 -2 129 -21 207 -29 125 -35
159 -44 264 -4 54 -12 87 -21 95 -12 8 -15 38 -16 129 0 65 3 114 6 110 4 -5
19 -26 34 -48 31 -47 31 -44 5 65 -11 47 -24 103 -29 125 l-8 39 44 -49 c24
-28 54 -68 65 -90 26 -49 58 -85 76 -85 8 0 32 -20 54 -44 22 -24 58 -51 80
-62 36 -16 46 -29 91 -118 74 -148 122 -218 193 -285 64 -59 151 -123 210
-154 26 -13 87 -97 71 -97 -4 0 -29 11 -57 24 -28 14 -49 21 -47 17 9 -24 186
-305 206 -328 13 -16 31 -40 40 -55 15 -26 17 -26 34 -11 17 15 18 14 18 -11
0 -31 26 -86 40 -86 6 0 10 -37 9 -93 -1 -136 0 -181 6 -175 6 6 11 29 21 92
3 22 8 44 10 47 2 4 7 40 10 81 10 109 15 118 61 108 21 -5 58 -16 82 -25 24
-8 46 -14 47 -12 2 2 -14 28 -36 58 -47 64 -49 73 -14 66 15 -3 45 3 67 13 28
13 46 16 58 9 10 -5 25 -9 34 -9 14 0 14 2 0 23 -13 21 -13 24 4 39 11 9 29
22 41 28 17 9 20 17 14 42 -9 44 -60 154 -96 211 -17 26 -29 49 -27 50 2 2 23
11 47 22 23 10 42 20 42 23 0 2 -13 24 -30 49 -33 48 -37 62 -17 64 47 6 56 2
237 -116 116 -75 116 -75 58 22 -28 48 -93 156 -144 240 l-92 152 36 -14 c19
-9 36 -14 38 -12 2 1 -21 22 -51 45 -87 68 -212 190 -244 238 -18 28 -28 55
-27 74 1 16 0 28 -3 27 -22 -5 -50 21 -76 70 -30 59 -131 167 -146 157 -5 -2
-29 23 -55 58 -36 49 -55 66 -87 77 -54 17 -147 88 -147 111 0 15 -42 87 -59
100 -4 3 -29 32 -56 65 -65 80 -167 180 -241 235 -79 60 -73 54 -138 153 -59
88 -87 120 -212 237 -38 36 -94 94 -124 130 -30 36 -66 74 -80 85 -54 44 -59
52 -54 95 3 24 1 40 -6 40 -5 0 -9 3 -9 8 6 37 3 39 -197 119 -7 2 -14 0 -18
-5z"/>
</g>
</svg>
